<svg xmlns="http://www.w3.org/2000/svg" xmlns:xlink="http://www.w3.org/1999/xlink" viewBox="0 0 720 380"><defs><style>.cls-1,.cls-10,.cls-11,.cls-2,.cls-3,.cls-5,.cls-9{fill:none;}.cls-11,.cls-2,.cls-3,.cls-5{stroke:#000;}.cls-10,.cls-11,.cls-2,.cls-3,.cls-5,.cls-9{stroke-miterlimit:10;}.cls-2,.cls-9{stroke-width:7px;}.cls-10,.cls-3{stroke-width:3px;}.cls-4{clip-path:url(#clip-path);}.cls-11,.cls-5{stroke-width:5px;}.cls-6{clip-path:url(#clip-path-2);}.cls-7{clip-path:url(#clip-path-3);}.cls-8{clip-path:url(#clip-path-4);}.cls-10,.cls-9{stroke:gray;}.cls-11{stroke-dasharray:48.73 48.73;}</style><clipPath id="clip-path"><polygon class="cls-1" points="357 213.84 357 159.69 294.44 186.5 357 213.84"/></clipPath><clipPath id="clip-path-2"><polygon class="cls-1" points="184.56 287.44 238.71 287.44 211.89 224.88 184.56 287.44"/></clipPath><clipPath id="clip-path-3"><polygon class="cls-1" points="238.71 85.56 184.56 85.56 211.37 148.12 238.71 85.56"/></clipPath><clipPath id="clip-path-4"><polygon class="cls-1" points="66 159.69 66 213.84 128.56 187.03 66 159.69"/></clipPath></defs><title>autonomous_vehicle</title><g id="Layer_2" data-name="Layer 2"><rect class="cls-2" x="128.56" y="148.38" width="166.66" height="76.76" rx="38.38"/><rect class="cls-3" x="173.78" y="148.38" width="76.23" height="76.76" rx="38.12"/><path class="cls-3" d="M219,148.38h15.25a31.07,31.07,0,0,1,31,31v14.8a31.07,31.07,0,0,1-31,31H219"/><path class="cls-3" d="M199.5,225.14a31.07,31.07,0,0,1-31-31v-14.8a31.07,31.07,0,0,1,31-31"/><path class="cls-3" d="M282.85,218.89a11,11,0,0,1,11.68-18.38"/><path class="cls-3" d="M294.53,169.86a11,11,0,0,1-13.4-16.43"/><g class="cls-4"><circle class="cls-5" cx="294.44" cy="186.5" r="11.57"/><circle class="cls-5" cx="294.44" cy="186.5" r="24.71"/><circle class="cls-5" cx="294.44" cy="186.5" r="37.85"/><circle class="cls-5" cx="294.44" cy="186.5" r="52.57"/></g><g class="cls-6"><circle class="cls-5" cx="211.89" cy="224.88" r="11.57"/><circle class="cls-5" cx="211.89" cy="224.88" r="24.71"/><circle class="cls-5" cx="211.89" cy="224.88" r="37.85"/><circle class="cls-5" cx="211.89" cy="224.88" r="52.57"/></g><g class="cls-7"><circle class="cls-5" cx="211.37" cy="148.12" r="11.57"/><circle class="cls-5" cx="211.37" cy="148.12" r="24.71"/><circle class="cls-5" cx="211.37" cy="148.12" r="37.85"/><circle class="cls-5" cx="211.37" cy="148.12" r="52.57"/></g><g class="cls-8"><circle class="cls-5" cx="128.56" cy="187.03" r="11.57"/><circle class="cls-5" cx="128.56" cy="187.03" r="24.71"/><circle class="cls-5" cx="128.56" cy="187.03" r="37.85"/><circle class="cls-5" cx="128.56" cy="187.03" r="52.57"/></g><rect class="cls-9" x="484.56" y="148.38" width="166.66" height="76.76" rx="38.38"/><rect class="cls-10" x="529.78" y="148.38" width="76.23" height="76.76" rx="38.12"/><path class="cls-10" d="M575,148.38h15.25a31.07,31.07,0,0,1,31,31v14.8a31.07,31.07,0,0,1-31,31H575"/><path class="cls-10" d="M555.5,225.14a31.07,31.07,0,0,1-31-31v-14.8a31.07,31.07,0,0,1,31-31"/><path class="cls-10" d="M638.85,218.89a11,11,0,0,1,11.68-18.38"/><path class="cls-10" d="M650.53,169.86a11,11,0,0,1-13.4-16.43"/><path class="cls-5" d="M369.5,186.5c36,0,60.87,15.87,89,44,50,50,80,57,151.5,57h30.5"/><circle cx="641" cy="288" r="15"/><path class="cls-5" d="M369.26,186.5c41.24,0,58.8-22.57,89.74-45.5,42.5-31.5,80-55.5,151.5-55.5H641"/><circle cx="641" cy="86" r="15"/><line class="cls-5" x1="72.5" y1="133.5" x2="95" y2="133.5"/><line class="cls-11" x1="143.73" y1="133.5" x2="606.64" y2="133.5"/><line class="cls-5" x1="631" y1="133.5" x2="653.5" y2="133.5"/><line class="cls-5" x1="73" y1="243.5" x2="95.5" y2="243.5"/><line class="cls-11" x1="144.23" y1="243.5" x2="607.14" y2="243.5"/><line class="cls-5" x1="631.5" y1="243.5" x2="654" y2="243.5"/><line class="cls-5" x1="73" y1="340.5" x2="654" y2="340.5"/><line class="cls-5" x1="73" y1="32.5" x2="654" y2="32.5"/><circle cx="369" cy="186.5" r="15"/></g></svg>