<svg xmlns="http://www.w3.org/2000/svg" viewBox="0 0 720 380"><defs><style>.cls-1,.cls-2{fill:none;stroke:#4d4d4d;stroke-width:7px;}.cls-1{stroke-miterlimit:10;}.cls-2{stroke-linecap:round;stroke-linejoin:round;}.cls-3{fill:#4d4d4d;}</style></defs><title>control_engineering</title><g id="Layer_2" data-name="Layer 2"><rect class="cls-1" x="221.5" y="181.5" width="110" height="70" rx="12"/><rect class="cls-1" x="221.5" y="36.5" width="110" height="70" rx="12"/><rect class="cls-1" x="465.5" y="181.5" width="110" height="70" rx="12"/><line class="cls-2" x1="415.5" y1="216.5" x2="441.43" y2="216.5"/><polygon class="cls-3" points="438.37 226.97 456.5 216.5 438.37 206.03 438.37 226.97"/><line class="cls-2" x1="341.5" y1="216.5" x2="367.43" y2="216.5"/><polygon class="cls-3" points="364.37 226.97 382.5 216.5 364.37 206.03 364.37 226.97"/><line class="cls-2" x1="172.5" y1="216.5" x2="194.43" y2="216.5"/><polygon class="cls-3" points="191.37 226.97 209.5 216.5 191.37 206.03 191.37 226.97"/><line class="cls-2" x1="61.5" y1="216.5" x2="119.43" y2="216.5"/><polygon class="cls-3" points="116.37 226.97 134.5 216.5 116.37 206.03 116.37 226.97"/><line class="cls-2" x1="588.5" y1="216.5" x2="651.43" y2="216.5"/><polygon class="cls-3" points="648.37 226.97 666.5 216.5 648.37 206.03 648.37 226.97"/><circle class="cls-2" cx="152.5" cy="216.5" r="8"/><circle class="cls-2" cx="396.5" cy="216.5" r="8"/><polyline class="cls-2" points="613.2 216.5 613.2 336.5 152.5 336.5 152.5 253.57"/><polygon class="cls-3" points="162.97 256.63 152.5 238.5 142.03 256.63 162.97 256.63"/><polyline class="cls-2" points="349.93 71.5 396.5 71.5 396.5 177.43"/><polygon class="cls-3" points="386.03 174.37 396.5 192.5 406.97 174.37 386.03 174.37"/><polyline class="cls-2" points="92.31 216.5 92.31 71.5 190.09 71.5"/><polygon class="cls-3" points="187.03 81.97 205.16 71.5 187.03 61.03 187.03 81.97"/></g></svg>