<?xml version="1.0" encoding="utf-8"?>
<!-- Generator: Adobe Illustrator 24.0.3, SVG Export Plug-In . SVG Version: 6.00 Build 0)  -->
<svg version="1.1" id="Layer_1" xmlns="http://www.w3.org/2000/svg" xmlns:xlink="http://www.w3.org/1999/xlink" x="0px" y="0px"
	 viewBox="0 0 239.8 240.7" style="enable-background:new 0 0 239.8 240.7;" xml:space="preserve">
<style type="text/css">
	.st0{clip-path:url(#SVGID_2_);}
</style>
<g>
	<g>
		<defs>
			<rect id="SVGID_1_" width="239.8" height="240.7"/>
		</defs>
		<clipPath id="SVGID_2_">
			<use xlink:href="#SVGID_1_"  style="overflow:visible;"/>
		</clipPath>
		<path class="st0" d="M120-0.2C53.7-0.2,0,53.5,0,119.8c0,66.3,53.7,120,120,120c66.3,0,120-53.7,120-120
			C240,53.5,186.3-0.2,120-0.2L120-0.2z M120,41.9l71,44.3H49L120,41.9z M191.9,156.9L191.9,156.9c0,7.1-5.8,12.9-12.9,12.9H61
			c-7.1,0-12.9-5.8-12.9-12.9V89c0-0.8,0.1-1.5,0.2-2.2l67.8,42.3c0.1,0.1,0.2,0.1,0.3,0.1c0.1,0,0.2,0.1,0.3,0.1
			c0.5,0.2,1,0.4,1.5,0.6c0.1,0,0.1,0,0.2,0c0.6,0.1,1.1,0.2,1.7,0.2h0c0.6,0,1.1-0.1,1.7-0.2c0.1,0,0.1,0,0.2,0
			c0.5-0.1,1-0.3,1.5-0.6c0.1,0,0.2-0.1,0.3-0.1c0.1,0,0.2-0.1,0.3-0.1l67.8-42.3c0.1,0.7,0.2,1.4,0.2,2.2V156.9z M191.9,156.9"/>
	</g>
</g>
</svg>
