<svg xmlns="http://www.w3.org/2000/svg" viewBox="0 0 392 392"><title>icon_web</title><g id="Layer_2" data-name="Layer 2"><path d="M319.78,349.48a196.36,196.36,0,0,0,73-152.92C392.74,87.9,304.66-.18,196-.18h0C87.34-.18-.74,87.9-.74,196.56S87.34,393.3,196,393.3a195.85,195.85,0,0,0,116.56-38.24C314.57,353.6,317.63,351.15,319.78,349.48Zm-247-139,1.8,10,.2.07,2.2-10.09,14.57-46.24h10l14.56,46.24,2.34,11h.21l2.27-11,11.69-46.24h12.3l-21,72.3h-10L99.6,192l-3.14-12.9h-.2l-3,12.9-14,44.57H69.13l-21-72.3H60.51Zm103.58,0,1.8,10,.2.07,2.21-10.09,14.57-46.24h10l14.57,46.24,2.34,11h.2l2.27-11,11.7-46.24h12.29l-21,72.3h-10L203.18,192,200,179.08h-.2l-3,12.9-14,44.57H172.71l-21-72.3h12.37Zm103.58,0,1.81,10,.2.07,2.21-10.09,14.56-46.24h10l14.57,46.24,2.33,11h.2l2.28-11,11.69-46.24h12.3l-21,72.3h-10L306.77,192l-3.14-12.9h-.2l-3,12.9-14,44.57H276.29l-21-72.3h12.36Z"/></g></svg>