<svg xmlns="http://www.w3.org/2000/svg" viewBox="0 0 392 392"><defs><style>.cls-1{fill:#010002;}</style></defs><title>icon_linkedin</title><g id="Layer_3" data-name="Layer 3"><path class="cls-1" d="M195.56,2C88.11,2,1,89.11,1,196.56S88.11,391.11,195.56,391.11,390.11,304,390.11,196.56,303,2,195.56,2ZM146.92,290.8H98.28V120.56h48.64ZM124.1,110.13a22.82,22.82,0,1,1,22.82-22.82,22.8,22.8,0,0,1-22.82,22.82ZM317.16,290.8H268.52V185.54c0-12.33-3.53-21-18.68-21-25.13,0-30,21-30,21V290.8H171.24V120.56h48.63v16.27a81.34,81.34,0,0,1,48.65-16.25c15.75,0,48.64,9.44,48.64,66.44Zm0,0"/></g></svg>