<?xml version="1.0" encoding="utf-8"?>
<!-- Generator: Adobe Illustrator 25.2.0, SVG Export Plug-In . SVG Version: 6.00 Build 0)  -->
<!DOCTYPE svg PUBLIC "-//W3C//DTD SVG 1.1//EN" "http://www.w3.org/Graphics/SVG/1.1/DTD/svg11.dtd" [
	<!ENTITY ns_extend "http://ns.adobe.com/Extensibility/1.0/">
	<!ENTITY ns_ai "http://ns.adobe.com/AdobeIllustrator/10.0/">
	<!ENTITY ns_graphs "http://ns.adobe.com/Graphs/1.0/">
	<!ENTITY ns_vars "http://ns.adobe.com/Variables/1.0/">
	<!ENTITY ns_imrep "http://ns.adobe.com/ImageReplacement/1.0/">
	<!ENTITY ns_sfw "http://ns.adobe.com/SaveForWeb/1.0/">
	<!ENTITY ns_custom "http://ns.adobe.com/GenericCustomNamespace/1.0/">
	<!ENTITY ns_adobe_xpath "http://ns.adobe.com/XPath/1.0/">
]>
<svg version="1.1" id="Layer_1" xmlns:x="&ns_extend;" xmlns:i="&ns_ai;" xmlns:graph="&ns_graphs;"
	 xmlns="http://www.w3.org/2000/svg" xmlns:xlink="http://www.w3.org/1999/xlink" x="0px" y="0px" viewBox="0 0 392 392"
	 style="enable-background:new 0 0 392 392;" xml:space="preserve">
<metadata>
	<sfw  xmlns="&ns_sfw;">
		<slices></slices>
		<sliceSourceBounds  bottomLeftOrigin="true" height="382.3" width="392" x="0" y="9.7"></sliceSourceBounds>
	</sfw>
</metadata>
<path d="M196,0C87.8,0,0,87.7,0,196c0,86.6,56.2,160,134,186c9.8,1.8,13-4.2,13-9.4V336c-54.5,11.9-65.9-23.1-65.9-23.1
	c-8.9-22.7-21.7-28.7-21.7-28.7c-17.8-12.1,1.4-11.9,1.4-11.9c19.7,1.4,30,20.2,30,20.2c17.5,29.9,45.9,21.3,57,16.2
	c1.8-12.7,6.9-21.3,12.4-26.3c-43.5-5-89.3-21.7-89.3-96.9c0-21.4,7.7-38.9,20.2-52.6c-2-5-8.8-24.9,1.9-51.9
	c0,0,16.4-5.3,53.9,20.1c15.6-4.3,32.4-6.5,49-6.6c16.7,0.1,33.4,2.2,49.1,6.6C282.6,76,299,81.2,299,81.2c10.6,27,4,46.9,1.9,51.9
	c12.5,13.7,20.1,31.2,20.1,52.6c0,75.3-45.9,91.8-89.5,96.7c7.1,6.1,13.5,18,13.5,36.3c0,26.3,0,47.3,0,53.8
	c0,5.2,3.2,11.3,13.1,9.4c77.8-25.9,133.9-99.4,133.9-186C392,87.7,304.2,0,196,0z"/>
</svg>
