<svg id="Layer_1" data-name="Layer 1" xmlns="http://www.w3.org/2000/svg" viewBox="0 0 392 392"><title>icon_instagram</title><path d="M196,236a39,39,0,1,0-39-39,39.07,39.07,0,0,0,39,39Zm0,0"/><path d="M281.23,149.23V111.65h-4.9l-32.72.12.16,37.58Zm0,0"/><path d="M196,2C88.48,2,1,89.49,1,197S88.48,392,196,392s195-87.48,195-195S303.51,2,196,2ZM306.89,174.24v90.81A42.89,42.89,0,0,1,264,307.9H128A42.88,42.88,0,0,1,85.1,265.05V129A42.89,42.89,0,0,1,128,86.11H264A42.9,42.9,0,0,1,306.89,129Zm0,0"/><path d="M256.65,197A60.65,60.65,0,1,1,139.8,174.24H106.7v90.81A21.21,21.21,0,0,0,128,286.27H264a21.24,21.24,0,0,0,21.25-21.22V174.24H252.12A59.16,59.16,0,0,1,256.65,197Zm0,0"/></svg>