<svg id="Layer_1" data-name="Layer 1" xmlns="http://www.w3.org/2000/svg" viewBox="0 0 720 380"><defs><style>.cls-1,.cls-2,.cls-3,.cls-4,.cls-6,.cls-7,.cls-8,.cls-9{fill:none;}.cls-1,.cls-2,.cls-3,.cls-4{stroke:#000;}.cls-1,.cls-2,.cls-3,.cls-6,.cls-7,.cls-8{stroke-linecap:round;}.cls-1,.cls-6{stroke-linejoin:round;}.cls-1{stroke-width:20.25px;}.cls-2,.cls-3,.cls-4,.cls-7,.cls-8,.cls-9{stroke-miterlimit:10;}.cls-2{stroke-width:47.97px;}.cls-3{stroke-width:33.05px;}.cls-4{stroke-width:4.26px;}.cls-5{fill:#4d4d4d;}.cls-6,.cls-7,.cls-8,.cls-9{stroke:#4d4d4d;}.cls-6{stroke-width:12.89px;}.cls-7{stroke-width:30.54px;}.cls-8{stroke-width:21.04px;}.cls-9{stroke-width:2.71px;}</style></defs><title>robotic_arm</title><path d="M284.89,30a29.15,29.15,0,1,1-29.15,29.15A29.19,29.19,0,0,1,284.89,30m0-9.59a38.75,38.75,0,1,0,38.74,38.74,38.74,38.74,0,0,0-38.74-38.74Z"/><path d="M179.09,176.06a45.55,45.55,0,1,1-45.55,45.54,45.59,45.59,0,0,1,45.55-45.54m0-9.59a55.14,55.14,0,1,0,55.13,55.13,55.13,55.13,0,0,0-55.13-55.13Z"/><path d="M179.09,191.91a29.7,29.7,0,1,1-29.7,29.69,29.73,29.73,0,0,1,29.7-29.69m0-1.6a31.3,31.3,0,1,0,31.29,31.29,31.29,31.29,0,0,0-31.29-31.29Z"/><line class="cls-1" x1="220.07" y1="156.78" x2="251.36" y2="107.6"/><line class="cls-2" x1="179.83" y1="302.82" x2="179.83" y2="329.64"/><line class="cls-3" x1="252.85" y1="340.07" x2="106.81" y2="340.07"/><line class="cls-1" x1="322.89" y1="106.11" x2="330.34" y2="137.41"/><path d="M343,167.12a14.25,14.25,0,1,1-14.25,14.25A14.27,14.27,0,0,1,343,167.12m0-9.6a23.85,23.85,0,1,0,23.84,23.85A23.85,23.85,0,0,0,343,157.52Z"/><path class="cls-4" d="M357.16,197l27.61-20a4.48,4.48,0,0,1,6.12,1.29l13.39,20.09a4.47,4.47,0,0,0,5.48,1.63l2.53-1.08a4.47,4.47,0,0,0,2.18-6.22L395.89,158a4.46,4.46,0,0,0-4.56-2.31l-47.58,4"/><path class="cls-4" d="M355.67,198.5l-23.79,25.87a4.47,4.47,0,0,0,.44,6.24l18.05,16a4.47,4.47,0,0,1,.86,5.65l-1.42,2.36a4.47,4.47,0,0,1-6.46,1.3l-31.8-23.17a4.47,4.47,0,0,1-1.67-4.83l11.52-48.82"/><path class="cls-5" d="M496.64,150.62a18.56,18.56,0,1,1-18.56,18.55,18.57,18.57,0,0,1,18.56-18.55m0-6.11a24.67,24.67,0,1,0,24.66,24.66,24.67,24.67,0,0,0-24.66-24.66Z"/><path class="cls-5" d="M564,243.58a29,29,0,1,1-29,29,29,29,0,0,1,29-29m0-6.1a35.1,35.1,0,1,0,35.1,35.09A35.1,35.1,0,0,0,564,237.48Z"/><path class="cls-5" d="M564,253.67a18.91,18.91,0,1,1-18.9,18.9,18.92,18.92,0,0,1,18.9-18.9m0-1a19.93,19.93,0,1,0,19.92,19.92A19.92,19.92,0,0,0,564,252.65Z"/><line class="cls-6" x1="537.9" y1="231.31" x2="517.98" y2="200"/><line class="cls-7" x1="563.52" y1="324.28" x2="563.52" y2="341.35"/><line class="cls-8" x1="517.03" y1="347.99" x2="610" y2="347.99"/><line class="cls-6" x1="472.45" y1="199.06" x2="467.7" y2="218.98"/><path class="cls-5" d="M459.64,237.89a9.07,9.07,0,1,1-9.07,9.07,9.08,9.08,0,0,1,9.07-9.07m0-6.11A15.18,15.18,0,1,0,474.82,247a15.18,15.18,0,0,0-15.18-15.18Z"/><path class="cls-9" d="M450.63,256.92l-17.57-12.73a2.85,2.85,0,0,0-3.9.82l-8.52,12.79a2.85,2.85,0,0,1-3.49,1l-1.61-.69a2.84,2.84,0,0,1-1.39-4L426,232.11a2.85,2.85,0,0,1,2.9-1.48l30.29,2.58"/><path class="cls-9" d="M451.58,257.87l15.14,16.47a2.84,2.84,0,0,1-.27,4L455,288.51a2.85,2.85,0,0,0-.54,3.6l.9,1.5a2.85,2.85,0,0,0,4.11.83l20.24-14.75a2.85,2.85,0,0,0,1.07-3.08l-7.33-31.07"/></svg>